<svg xmlns="http://www.w3.org/2000/svg" width="1113.5" height="135.2" viewBox="0 0 1113.5 135.2"><linearGradient id="a" gradientUnits="userSpaceOnUse" y1="67.6" x2="1113.53" y2="67.6"><stop offset="0" stop-color="#E3E3E3"/><stop offset="1" stop-color="#A8FE01"/></linearGradient><path fill="url(#a)" d="M112.4 0L96.8 31.8H53.7c-3.2 0-6.6 1.7-10.5 5.2-3.8 3.4-6.2 6.8-7.1 10.1-2 7-3 11.4-3 13.2 0 28.8 8.2 43.3 24.7 43.3h54.4v31.8H54.6c-1.8 0-6.6-.9-14.5-2.7-9.8-2.3-18.4-8.1-25.9-17.6C7.1 106 2.9 96.3 1.5 85.9.5 78.1 0 72.2 0 68.3 0 49 5.1 33.1 15.2 20.4 26.1 6.8 41 0 59.8 0h52.6zm125.4 67.4c0 19-5.2 34.9-15.7 47.5-11.3 13.5-26.3 20.3-45 20.3-19 0-34.2-6.6-45.5-19.8-10.7-12.4-16.1-28.3-16.1-47.7 0-19.2 5.5-35.1 16.6-47.8C143.8 6.6 159 0 177.8 0c18.5 0 33.3 6.8 44.4 20.3 10.4 12.6 15.6 28.3 15.6 47.1zm-29.8.4c0-9.9-2.5-18.4-7.6-25.5-5.6-8-13.2-12-22.8-12-9.9 0-17.6 4-23.2 12-4.8 7-7.3 15.7-7.3 26 0 9.8 2.5 18.2 7.4 25.2 5.6 8 13.1 12 22.5 12 9.7 0 17.4-4 23.2-12 5.2-7.1 7.8-15.7 7.8-25.7zm185.4 67.4h-33.8V67.6L337 135.2h-33.8l-22.5-67.6v67.6h-33.8V0h45.2l28.1 84.4 28-84.4h45.2v135.2zm159.2 0h-33.8V67.6l-22.6 67.6h-33.8l-22.5-67.6v67.6h-33.8V0h45.2l28.1 84.4 28-84.4h45.2v135.2zm123.9-49.5c0 2.3-1.1 6.1-3.2 11.7-7.5 19.6-19.4 31.3-35.5 35.2-7.7 1.8-13.1 2.7-16.2 2.7-16.6 0-29.8-5.2-39.7-15.7-5.6-6-10.1-13.4-13.5-22.1-2-5.3-3-9.2-3-11.7V0h31.8v68.1c0 9.4 1.6 17.1 4.9 23.3 4.2 8 10.5 12 18.9 12 8.6 0 14.9-4 18.9-12 3.2-6.2 4.7-14 4.7-23.3V0h31.9v85.7zM809 135.2h-35.9l-51.3-80.8v80.8h-33.5V0h37.3l49.9 81.1V0H809v135.2zm46.5 0h-33.8V0h33.8v135.2zM981.7 0l-15.5 31.4h-29.6v103.8h-32.3V31.4h-36.2V0h113.6zm131.8 0l-46.1 67.5v67.7h-33.8V67.4L987.3 0h38.9l25.2 38.9L1077.2 0h36.3z"/></svg>