<svg xmlns="http://www.w3.org/2000/svg" width="801.5" height="137.6" viewBox="0 0 801.5 137.6"><path fill="#E3E3E3" d="M78.8 87.2c0 2.3-1.1 6.3-3.3 11.9-7.7 20-19.7 31.9-36.1 35.8-7.8 1.8-12.7 2.8-14.8 2.8H0v-32.3h21.2c8.9 0 15.6-4 20-11.9 3.4-6.3 5.2-14.3 5.2-24.1V0h32.5v87.2zm133.8-18.6c0 19.4-5.3 35.5-16 48.3-11.5 13.8-26.7 20.6-45.8 20.6-19.4 0-34.8-6.7-46.3-20.1C93.7 104.9 88.2 88.7 88.2 69c0-19.5 5.6-35.7 16.9-48.7C116.9 6.8 132.4 0 151.5 0c18.8 0 33.9 6.9 45.2 20.6 10.6 12.9 15.9 28.9 15.9 48zm-30.3.4c0-10.1-2.6-18.7-7.7-26-5.7-8.1-13.5-12.2-23.2-12.2-10.1 0-17.9 4.1-23.6 12.2-4.9 7.1-7.4 15.9-7.4 26.5 0 10 2.5 18.5 7.6 25.6 5.7 8.1 13.4 12.2 22.9 12.2 9.9 0 17.7-4.1 23.6-12.2 5.2-7.2 7.8-15.9 7.8-26.1zm75.7 68.6h-34.4V0H258v137.6zm137.4 0h-36.6l-52.2-82.3v82.3h-34.1V0h38l50.7 82.6V0h34.1v137.6zM568.6 0l-15.8 32h-30.1v105.6h-32.9V32H453V0h115.6zm116.3 137.6h-32.3V62.8l-13.4 22h-31.5v52.8H576V0h32v52.8h44.5V0h32.3v137.6zm101.5-53.3h-86.9v-32h86.9v32zm8.1 53.3h-94.9v-32h94.9v32zm7-137.6l-15.3 32H700V0h101.5z"/></svg>